<svg width="1380" height="1380" viewBox="0 0 1380 1380" fill="none" xmlns="http://www.w3.org/2000/svg">
<circle cx="690" cy="690" r="670" fill="#EDEDED" stroke="#53118F" stroke-width="40"/>
<path d="M382 602L375.5 606.5L388 615L400.5 624.5L411.5 613L423 604.5L411.5 595.5L400.5 585.5L395.5 590.5L389.5 595.5L382 602Z" fill="#53118F"/>
<path d="M945 487.5L964 471L971.5 478.5L979.5 484.5L967.5 485.5L954.5 490L946 495.5L938 502L927.5 487.5L917.5 477.5L914 471L919.5 472L929 477.5L945 487.5Z" fill="#53118F"/>
<path d="M1001.5 918H1074.5L1031 833L983 749L935.5 674.5L889.5 596.5L836.5 510.5L802 446L774.5 397L750.5 352L688 233L662 277.5L636 324L580 429L472.5 631.5L407 750.5L331 901.5L324.5 918H376L379 904.5L400.5 864.5L424.5 821L465.5 750.5L500 692L536.5 624.5L596 510.5L613.5 479L632 442.5L682.5 350L693.5 332.5L707.5 356L726.5 393.5L759.5 460V463.5H744.5L728 432L693.5 361L670.5 409.5L646.5 457.5L613.5 521L549.5 641L517 702L495.5 744L483.5 768.5H472.5L455.5 803L407 894.5L395.5 918H424.5L465.5 844L495.5 797L486.5 817.5L480.5 833.5L478.5 840L445 918H917L909.5 904.5L839 754.5V750.5L842.5 749H846.5L851 756L935.5 918H978.5L971.5 904.5L860 687.5L830.5 631.5L808.5 591.5L796.5 566.5L791.5 557L789.5 551.5L791.5 549.5L796.5 551.5L802 558.5L816.5 578L832.5 604L866 663L1001.5 918Z" fill="#53118F"/>
<path d="M775 343.5L793 360.5L810 378L819 387.5L827 397L836.5 408.5L842.5 417L847.5 424L856 436.5L863.5 448L872 463L879 476.5L888.5 494.5L899 516.5L908 536L916 557L924.5 580L928.5 593L932 605L935 615L938.5 626.5L942 641L945 656.5L920.5 616.5L891.5 567L865.5 522L840 476.5L801 403.5L780.5 367.5L764 338.5L760.5 331.5L767 336L775 343.5Z" fill="#53118F"/>
<path d="M1115 991.5H949L940 993.5L930 997L921.5 999.5L913 1005H769.5L627.25 1006H342L330 997L316.5 989.5L299.5 984.5L280 981.5L285 968.5L299.5 934.5L320.5 888L340.5 845.5L351.5 824L361.5 806L348.5 781L335.5 757.5L322.5 732.5L309.5 709L292.5 729.5L274 753.5L238.5 802L205.5 847.5L171.5 896.5L183.5 946L215.5 1027.5L254 1092L275.5 1119L291 1135.5L319 1152L311 1141.5L270.5 1076.5H521L510.5 1053L506 1029.5C514.333 1032.33 535.5 1039.2 553.5 1044H890.5L877.5 1076.5H1089.5L1081.5 1096.5H325L331 1101.5L338.5 1108.5V1111.5L336 1113.5V1121L345.5 1140L357.5 1160.5L367.5 1175L377.5 1186.5L385 1195L392.5 1200.5L403.5 1208L417 1214.5L431.5 1220L443.5 1224.5L484 1238.5L506 1244.5L525 1248.5L545 1253L565.5 1256.5L589 1259L608.5 1260.5L626.5 1262L640.5 1262.5H676.5H713.5L729.5 1262L743 1261L773.5 1258L804.5 1254L832 1249.5L857.5 1243.5L880 1238L901.5 1232L942.5 1217L981.5 1197L1013 1178L1029.5 1165.5L1045.5 1153L1062 1137.5L1073 1127L1085.5 1113.5L1096.5 1101L1112.5 1083L1118.5 1075L1126.5 1064L1143 1041L1160.5 1012L1183 972.5L1204.5 929.5L1220 904.5L1217 901L1212.5 894L1204.5 882L1187.5 855.5L1156.5 805.5L1124 756.5L1107 732L1092 711.5L1076 732L1060.5 755L1045.5 776.5L1031 799.5L1053.25 846.75L1065.5 871L1075.5 894L1097 942L1115 991.5Z" fill="#53118F"/>
<path d="M268.5 626.5L287 696.5L223 788.25L192.5 834L172 863L159.5 881.5L154.5 870.5L149.5 854L142 816.5L137 782.5L134 765.5L132 751.5L156.5 714.5L183 676.5L213.5 637.5L240.5 608L268.5 626.5Z" fill="#53118F"/>
<path d="M1178.5 813L1233 887L1238.5 880L1243 869.5L1248.5 856L1255.5 834.5L1256.5 829.5L1262 809.5L1267.5 788L1274 765L1279.5 746V739L1272.5 725L1264.5 709L1257.5 694L1247.5 674L1226.5 642L1216.5 625.5L1206 610L1195.5 623.5L1185 638.5L1161.5 672.5L1142.5 704L1133 719L1124.5 736L1149 771.5L1178.5 813Z" fill="#53118F"/>
<path d="M671 516.5L657.5 507L675 472L684.5 453.5L689.5 444.5L692 441L694.5 437.5L697 439.5L699.5 443.5L705.5 453L715.5 472L735 509.5L771 583L808 654L847 724H826L789 656L758 593.5L727 531L697 470L693.5 475.5L691 481L683.5 493.5L671 516.5Z" fill="#EDEDED"/>
<path d="M606 882.5H482.5L488.5 862L494.5 840L511.5 796.5L529.5 753.5L549 713L594 625L615 587.5L625 569L632.5 557L642.5 556.5L625 596L604 640.5L568.5 716L553 750L543 772.5L536 792L535 798.5L539.5 794L547.5 783L556.5 769.5L564.5 756L571.5 743L578 731.5L589.5 711.5L600 692L617.5 660.5L636 627L656 589.5L666 572L678 550.5L687 534L695.5 519.5L707.5 541L719 563.5L743 608.5L786.5 700.5L790.5 708L798 722.5L805.5 738L830.5 789.5L853.5 834L865.5 857.5L877 877.5V883.5H811L790.5 850L773.5 822.5L769.5 816.5L745 784.5L730 768.5L723 762.5L717 759.5H707L701.5 765L696.5 773L682.5 790L656 820.5L606 882.5Z" fill="#EDEDED"/>
<path d="M601 795H570.5L600.5 744L615 716.5L627.5 692.5L633.5 681L638.5 671L653.5 639L678.5 584L696.5 626L715.5 666.5L754.5 751L747.5 747.5L739.5 742.5L725.5 730L683 645.5L673.5 661.5L662 681L641.5 719L601 795Z" fill="#53118F"/>
<path d="M174.018 526.666H332.442V602.926H313.746V539.704H191.976V603.418H174.018V526.666ZM183.366 554.464H320.88V566.764H183.366V554.464ZM183.366 582.508H320.88V595.3H183.366V582.508ZM241.668 376.114H260.364V509.692H241.668V376.114ZM168.852 393.334H331.212V460.492H165.9V448.438H312.762V405.634H168.852V393.334ZM142.776 419.902H361.224V433.678H142.776V419.902ZM159.258 474.268H344.742V486.814H159.258V474.268ZM142.284 501.328H361.47V515.104H142.284V501.328Z" fill="#933DC9"/>
<path d="M436.506 199.848H592.962V215.346H436.506V199.848ZM503.664 206.736L524.328 208.458C520.392 221.004 515.718 234.534 512.028 243.39L496.776 240.438C499.236 230.844 502.434 216.33 503.664 206.736ZM546.468 168.36L565.164 173.034C558.276 184.35 550.896 196.404 544.5 204.522L529.002 200.34C534.906 191.484 542.532 177.708 546.468 168.36ZM462.582 174.756L477.096 169.098C484.722 177.216 492.348 188.778 495.054 196.896L480.048 203.538C477.342 195.42 469.962 183.366 462.582 174.756ZM424.206 265.53V352.614H406.248V282.75H371.808V265.53H424.206ZM424.206 344.496C435.768 362.7 457.662 371.064 485.952 372.294C512.766 373.278 568.116 372.54 597.144 370.572C595.176 375 591.978 383.856 591.24 389.514C564.18 390.498 513.258 390.99 485.952 390.006C453.972 388.776 431.832 380.166 416.088 360.732C404.28 371.31 391.734 381.888 378.45 392.712L368.61 373.77C380.418 365.898 394.932 355.074 407.478 344.496H424.206ZM374.514 185.58L388.044 174.51C404.28 184.842 422.73 200.832 431.34 212.886L416.826 224.94C408.954 213.132 390.504 196.404 374.514 185.58ZM473.406 282.996V303.414H555.324V282.996H473.406ZM473.406 316.944V337.608H555.324V316.944H473.406ZM473.406 249.048V269.466H555.324V249.048H473.406ZM455.94 234.78H573.528V351.876H455.94V234.78Z" fill="#933DC9"/>
</svg>
